<svg xmlns:dc="http://purl.org/dc/elements/1.1/" xmlns:cc="http://creativecommons.org/ns#" xmlns:rdf="http://www.w3.org/1999/02/22-rdf-syntax-ns#" xmlns:svg="http://www.w3.org/2000/svg" xmlns="http://www.w3.org/2000/svg" xmlns:sodipodi="http://sodipodi.sourceforge.net/DTD/sodipodi-0.dtd" xmlns:inkscape="http://www.inkscape.org/namespaces/inkscape" version="1.1" x="0px" y="0px" viewBox="0 0 100 125"><g transform="translate(0,-952.36218)"><path style="font-size:medium;font-style:normal;font-variant:normal;font-weight:normal;font-stretch:normal;text-indent:0;text-align:start;text-decoration:none;line-height:normal;letter-spacing:normal;word-spacing:normal;text-transform:none;direction:ltr;block-progression:tb;writing-mode:lr-tb;text-anchor:start;baseline-shift:baseline;opacity:1;color:#01afaa;fill:#01afaa;fill-opacity:1;stroke:none;stroke-width:5.45454550000000000;marker:none;visibility:visible;display:inline;overflow:visible;enable-background:accumulate;font-family:Sans;-inkscape-font-specification:Sans"  d="M 50 5 C 36.228415 5 25 16.22841 25 30 C 25 42.760397 34.630225 53.329228 47 54.8125 L 47 92 C 46.97758 93.5849 48.414904 95.03125 50 95.03125 C 51.585096 95.03125 53.022415 93.5849 53 92 L 53 54.8125 C 65.369775 53.329228 75 42.760397 75 30 C 75 16.22841 63.771585 5 50 5 z M 50 11 C 60.528944 11 69 19.47106 69 30 C 69 40.52894 60.528944 49 50 49 C 39.471056 49 31 40.52894 31 30 C 31 19.47106 39.471056 11 50 11 z " transform="translate(0,952.36218)"/></g></svg>